<svg xmlns="http://www.w3.org/2000/svg" version="1.1" xmlns:xlink="http://www.w3.org/1999/xlink" xmlns:svgjs="http://svgjs.dev/svgjs" width="2000" height="555" viewBox="0 0 2000 555"><g transform="matrix(1,0,0,1,-1.2121212121212466,-2.255597595595077)"><svg viewBox="0 0 396 110" data-background-color="#001f3f" preserveAspectRatio="xMidYMid meet" height="555" width="2000" xmlns="http://www.w3.org/2000/svg" xmlns:xlink="http://www.w3.org/1999/xlink"><g id="tight-bounds" transform="matrix(1,0,0,1,0.2400000000000091,0.44705537930713035)"><svg viewBox="0 0 395.52 109.10561595854175" height="109.10561595854175" width="395.52"><g><svg viewBox="0 0 584.203346337993 161.1545963472088" height="109.10561595854175" width="395.52"><g transform="matrix(1,0,0,1,188.68334633799293,22.272451448854483)"><svg viewBox="0 0 395.52000000000004 116.60969344949984" height="116.60969344949984" width="395.52000000000004"><g id="textblocktransform"><svg viewBox="0 0 395.52000000000004 116.60969344949984" height="116.60969344949984" width="395.52000000000004" id="textblock"><g><svg viewBox="0 0 395.52000000000004 116.60969344949984" height="116.60969344949984" width="395.52000000000004"><g transform="matrix(1,0,0,1,0,0)"><svg width="395.52000000000004" viewBox="3.16 -38.44 165.06 48.67" height="116.60969344949984" data-palette-color="#ffffff"><g class="wordmark-text-0" data-fill-palette-color="primary" id="text-0"><path d="M26.44 0L3.16 0 3.16-36.36 10.85-36.36 10.85-6.34 26.44-6.34 26.44 0ZM38.95 0L31.39 0 31.39-27.27 38.95-27.27 38.95 0ZM35.19-30.79L35.19-30.79Q33.5-30.79 32.3-31.92 31.11-33.04 31.11-34.62L31.11-34.62Q31.11-36.19 32.3-37.31 33.5-38.44 35.19-38.44L35.19-38.44Q36.88-38.44 38.07-37.31 39.27-36.19 39.27-34.62L39.27-34.62Q39.27-33.04 38.07-31.92 36.88-30.79 35.19-30.79ZM52.55-15.77L52.55-15.77 52.55 0 44.99 0 44.99-27.27 52.2-27.27 52.2-22.46 52.52-22.46Q53.42-24.84 55.55-26.23 57.68-27.63 60.72-27.63L60.72-27.63Q63.56-27.63 65.67-26.38 67.79-25.14 68.96-22.84 70.13-20.54 70.13-17.37L70.13-17.37 70.13 0 62.57 0 62.57-16.02Q62.58-18.52 61.29-19.93 59.99-21.34 57.72-21.34L57.72-21.34Q56.19-21.34 55.03-20.69 53.87-20.03 53.22-18.78 52.57-17.52 52.55-15.77ZM87.94-13.57L82.93-7.85 82.95-16.92 84.05-16.92 92.78-27.27 101.47-27.27 89.73-13.57 87.94-13.57ZM83.64 0L76.08 0 76.08-36.36 83.64-36.36 83.64 0ZM101.98 0L93.12 0 85.1-11.88 90.14-17.22 101.98 0ZM127.76-13.41L127.76-36.36 135.45-36.36 135.45-12.75Q135.45-8.77 133.56-5.79 131.67-2.81 128.27-1.15 124.88 0.51 120.37 0.51L120.37 0.51Q115.85 0.51 112.45-1.15 109.06-2.81 107.18-5.79 105.3-8.77 105.3-12.75L105.3-12.75 105.3-36.36 112.99-36.36 112.99-13.41Q112.99-11.33 113.9-9.71 114.82-8.1 116.49-7.17 118.15-6.25 120.37-6.25L120.37-6.25Q122.61-6.25 124.27-7.17 125.93-8.1 126.85-9.71 127.76-11.33 127.76-13.41L127.76-13.41ZM149.19 10.23L141.62 10.23 141.62-27.27 149.08-27.27 149.08-22.69 149.42-22.69Q149.92-23.79 150.87-24.94 151.82-26.08 153.35-26.86 154.89-27.63 157.18-27.63L157.18-27.63Q160.16-27.63 162.68-26.07 165.2-24.52 166.71-21.4 168.22-18.29 168.22-13.6L168.22-13.6Q168.22-9.04 166.76-5.9 165.29-2.77 162.78-1.16 160.27 0.44 157.16 0.44L157.16 0.44Q154.96 0.44 153.42-0.28 151.89-1.01 150.91-2.12 149.93-3.23 149.42-4.37L149.42-4.37 149.19-4.37 149.19 10.23ZM149.03-13.64L149.03-13.64Q149.03-11.2 149.7-9.39 150.38-7.58 151.66-6.58 152.93-5.58 154.76-5.58L154.76-5.58Q156.61-5.58 157.89-6.6 159.17-7.62 159.83-9.44 160.5-11.26 160.5-13.64L160.5-13.64Q160.5-16 159.84-17.79 159.18-19.58 157.91-20.6 156.63-21.61 154.76-21.61L154.76-21.61Q152.92-21.61 151.65-20.63 150.38-19.66 149.7-17.86 149.03-16.07 149.03-13.64Z" fill="#ffffff" data-fill-palette-color="primary"></path></g></svg></g></svg></g></svg></g></svg></g><g><svg viewBox="0 0 161.1545963472088 161.1545963472088" height="161.1545963472088" width="161.1545963472088"><g><svg></svg></g><g id="icon-0"><svg viewBox="0 0 161.1545963472088 161.1545963472088" height="161.1545963472088" width="161.1545963472088"><g><path transform="scale(1.61155,1.61155)" d="M30 100c-16.569 0-30-13.431-30-30v-40c0-16.569 13.431-30 30-30h40c16.569 0 30 13.431 30 30v40c0 16.569-13.431 30-30 30z" fill="#a4c1ff" fill-rule="nonzero" stroke="none" stroke-width="1" stroke-linecap="butt" stroke-linejoin="miter" stroke-miterlimit="10" stroke-dasharray="" stroke-dashoffset="0" font-family="none" font-weight="none" font-size="none" text-anchor="none" style="mix-blend-mode: normal" data-fill-palette-color="accent"></path></g><g transform="matrix(1,0,0,1,32.23091926944178,32.43152665078685)"><svg viewBox="0 0 96.69275780832525 96.29154304563511" height="96.29154304563511" width="96.69275780832525"><g><svg xmlns="http://www.w3.org/2000/svg" xmlns:xlink="http://www.w3.org/1999/xlink" version="1.1" x="0" y="0" viewBox="0 0 48.2 48" enable-background="new 0 0 48 48" xml:space="preserve" id="dxe-0" width="96.69275780832525" height="96.29154304563511" class="icon-dxe-0" data-fill-palette-color="quaternary"><g fill="#471aa0" data-fill-palette-color="quaternary"><path d="M45.3 23.9V21.3C45.3 9.6 35.8 0 24 0S2.7 9.6 2.7 21.3V23.9C1 25.3 0 27.4 0 29.7V32.3C0 36.6 3.4 40 7.7 40V22H7V21.3C7 11.9 14.6 4.3 24 4.3S41 11.9 41 21.3V22H40.3V40C41.6 40 42.8 39.7 43.8 39.1V44C43.8 44.5 43.4 45 42.8 45H25.8C25.3 45 24.8 44.6 24.8 44V43.7C25.2 43.2 25.5 42.6 25.5 42 25.5 40.5 24.3 39.4 22.9 39.4S20.3 40.6 20.3 42C20.3 43.1 21 44 22 44.4 22.2 46.4 23.9 48 25.9 48H43C45.2 48 47 46.2 47 44V36.3C47.7 35.1 48.2 33.7 48.2 32.2V29.6C48 27.4 47 25.3 45.3 23.9" fill="#471aa0" data-fill-palette-color="quaternary"></path><path d="M38.2 22C36.7 22 35.4 23.2 35.4 24.8V37.3C35.4 38.8 36.6 40.1 38.2 40.1z" fill="#471aa0" data-fill-palette-color="quaternary"></path><path d="M9.8 22V40C11.3 40 12.6 38.8 12.6 37.2V24.8C12.6 23.3 11.4 22 9.8 22" fill="#471aa0" data-fill-palette-color="quaternary"></path></g></svg></g></svg></g></svg></g></svg></g></svg></g><defs></defs></svg><rect width="395.52" height="109.10561595854175" fill="none" stroke="none" visibility="hidden"></rect></g></svg></g></svg>