<svg xmlns="http://www.w3.org/2000/svg" version="1.1" xmlns:xlink="http://www.w3.org/1999/xlink" xmlns:svgjs="http://svgjs.dev/svgjs" width="128" height="128" viewBox="0 0 128 128"><g transform="matrix(0.8046875,0,0,0.8046875,12.221578124999994,12.009040456431528)"><svg viewBox="0 0 96 96" data-background-color="#001f3f" preserveAspectRatio="xMidYMid meet" height="128" width="128" xmlns="http://www.w3.org/2000/svg" xmlns:xlink="http://www.w3.org/1999/xlink"><g id="tight-bounds" transform="matrix(1,0,0,1,0.25950000000000273,0.45759336099585823)"><svg viewBox="0 0 95.481 95.08481327800828" height="95.08481327800828" width="95.481"><g><svg viewBox="0 0 95.481 95.08481327800828" height="95.08481327800828" width="95.481"><g><svg viewBox="0 0 95.481 95.08481327800828" height="95.08481327800828" width="95.481"><g id="textblocktransform"><svg viewBox="0 0 95.481 95.08481327800828" height="95.08481327800828" width="95.481" id="textblock"><g><svg viewBox="0 0 95.481 95.08481327800828" height="95.08481327800828" width="95.481"><g><svg viewBox="0 0 95.481 95.08481327800828" height="95.08481327800828" width="95.481"><g><svg xmlns="http://www.w3.org/2000/svg" xmlns:xlink="http://www.w3.org/1999/xlink" version="1.1" x="0" y="0" viewBox="0 0 48.2 48" enable-background="new 0 0 48 48" xml:space="preserve" id="icon-0" width="95.481" height="95.08481327800828" class="icon-icon-0" data-fill-palette-color="accent"><g fill="#a4c1ff" data-fill-palette-color="accent"><path d="M45.3 23.9V21.3C45.3 9.6 35.8 0 24 0S2.7 9.6 2.7 21.3V23.9C1 25.3 0 27.4 0 29.7V32.3C0 36.6 3.4 40 7.7 40V22H7V21.3C7 11.9 14.6 4.3 24 4.3S41 11.9 41 21.3V22H40.3V40C41.6 40 42.8 39.7 43.8 39.1V44C43.8 44.5 43.4 45 42.8 45H25.8C25.3 45 24.8 44.6 24.8 44V43.7C25.2 43.2 25.5 42.6 25.5 42 25.5 40.5 24.3 39.4 22.9 39.4S20.3 40.6 20.3 42C20.3 43.1 21 44 22 44.4 22.2 46.4 23.9 48 25.9 48H43C45.2 48 47 46.2 47 44V36.3C47.7 35.1 48.2 33.7 48.2 32.2V29.6C48 27.4 47 25.3 45.3 23.9" fill="#a4c1ff" data-fill-palette-color="accent"></path><path d="M38.2 22C36.7 22 35.4 23.2 35.4 24.8V37.3C35.4 38.8 36.6 40.1 38.2 40.1z" fill="#a4c1ff" data-fill-palette-color="accent"></path><path d="M9.8 22V40C11.3 40 12.6 38.8 12.6 37.2V24.8C12.6 23.3 11.4 22 9.8 22" fill="#a4c1ff" data-fill-palette-color="accent"></path></g></svg></g></svg></g></svg></g></svg></g></svg></g></svg></g><defs></defs></svg><rect width="95.481" height="95.08481327800828" fill="none" stroke="none" visibility="hidden"></rect></g></svg></g></svg>